<?xml version="1.0" encoding="iso-8859-1"?>
<!-- Generator: Adobe Illustrator 19.0.0, SVG Export Plug-In . SVG Version: 6.00 Build 0)  -->
<svg version="1.1" id="Layer_1" xmlns="http://www.w3.org/2000/svg" xmlns:xlink="http://www.w3.org/1999/xlink" x="0px" y="0px"
	 viewBox="0 0 512 512" style="enable-background:new 0 0 512 512;" xml:space="preserve">
<g>
	<circle style="fill:#CED4D2;" cx="406.081" cy="323.104" r="97.738"/>
	<circle style="fill:#CED4D2;" cx="105.908" cy="323.104" r="97.738"/>
</g>
<path d="M413.123,327.252c1.471-2.489,1.515-5.57,0.118-8.1L340.55,187.398l22.392-41.221c1.375-2.532,1.315-5.6-0.158-8.077
	s-4.142-3.994-7.022-3.994h-43.574c-4.513,0-8.17,3.658-8.17,8.17s3.657,8.17,8.17,8.17h29.84l-15.459,28.462H189.125v-79.58h4.601
	c4.512,0,8.17-3.658,8.17-8.17c0-4.512-3.658-8.17-8.17-8.17h-43.574c-17.423,0-31.598,14.175-31.598,31.598
	c0,4.512,3.657,8.17,8.17,8.17c4.513,0,8.17-3.658,8.17-8.17c0-8.413,6.844-15.258,15.258-15.258h22.633v85.647L98.758,319.152
	c-2.18,3.951-0.745,8.921,3.206,11.101c1.251,0.691,2.605,1.017,3.939,1.017c2.88,0,5.671-1.525,7.16-4.225l67.89-123.054
	l59.998,108.747c5.732,10.391,19.519,18.531,31.388,18.531h133.747C408.979,331.269,411.655,329.742,413.123,327.252z
	 M272.34,314.928c-6.027,0-14.169-4.806-17.081-10.084l-60.465-109.595h122.896l-49.577,91.269
	c-2.154,3.965-0.685,8.925,3.28,11.079c1.24,0.673,2.575,0.992,3.892,0.992c2.899,0,5.706-1.546,7.188-4.272l48.819-89.876
	l60.956,110.486H272.34V314.928z"/>
<path d="M326.87,252.814c-9.112,10.265-16.048,21.997-20.616,34.873c-1.509,4.253,0.716,8.923,4.97,10.432
	c0.902,0.32,1.825,0.473,2.731,0.473c3.362,0,6.512-2.092,7.7-5.441c3.861-10.883,9.727-20.804,17.435-29.487
	c2.996-3.375,2.69-8.538-0.685-11.534C335.027,249.133,329.864,249.44,326.87,252.814z"/>
<path d="M406.09,217.188c-5.739,0-11.528,0.471-17.208,1.4c-4.453,0.728-7.473,4.928-6.744,9.382
	c0.728,4.452,4.925,7.474,9.38,6.744c4.811-0.787,9.714-1.185,14.571-1.185c49.388,0,89.569,40.182,89.569,89.574
	c0,49.388-40.181,89.568-89.569,89.568c-37.856,0-71.789-23.959-84.44-59.621c-1.509-4.253-6.181-6.476-10.431-4.969
	c-4.253,1.509-6.477,6.179-4.969,10.432c14.957,42.167,55.079,70.499,99.839,70.499c58.398,0,105.91-47.51,105.91-105.909
	C512,264.7,464.49,217.188,406.09,217.188z"/>
<path d="M173.596,252.127c-3.375,2.996-3.681,8.16-0.685,11.534c14.554,16.394,22.57,37.503,22.57,59.441
	c0,49.388-40.181,89.568-89.57,89.568c-49.389,0-89.572-40.18-89.572-89.568c0-49.391,40.182-89.574,89.573-89.574
	c4.855,0,9.757,0.399,14.568,1.185c4.466,0.727,8.654-2.293,9.38-6.745c0.729-4.453-2.292-8.653-6.744-9.382
	c-5.68-0.928-11.468-1.399-17.204-1.399C47.513,217.188,0,264.7,0,323.102C0,381.5,47.513,429.011,105.913,429.011
	c58.399,0,105.91-47.51,105.91-105.909c0-25.939-9.479-50.902-26.692-70.289C182.137,249.438,176.972,249.132,173.596,252.127z"/>
<g>
</g>
<g>
</g>
<g>
</g>
<g>
</g>
<g>
</g>
<g>
</g>
<g>
</g>
<g>
</g>
<g>
</g>
<g>
</g>
<g>
</g>
<g>
</g>
<g>
</g>
<g>
</g>
<g>
</g>
</svg>
