<svg xmlns="http://www.w3.org/2000/svg" viewBox="0 0 295 716" width="295" height="716">
	<defs>
		<clipPath clipPathUnits="userSpaceOnUse" id="cp1">
			<path d="M-52 -37L630 -37L630 741L-52 741Z" />
		</clipPath>
	</defs>
	<style>
		tspan { white-space:pre }
		.shp0 { fill: #2c2e35 } 
	</style>
	<g id="Page 1" clip-path="url(#cp1)">
		<path id="Path 1" class="shp0" d="M255.45,82.8c-0.37,-6.54 0,-13.08 -0.56,-19.64c-0.67,-7.75 -2.01,-15.34 -5.21,-22.57c-1.8,-4.08 -5.41,-7.03 -10.75,-7.86c-7.48,-1.16 -12.56,2.56 -16.58,6.93c-5.6,6.09 -9.19,13.16 -12.37,20.48c-4.6,10.57 -7.09,21.55 -10.28,32.41c-2.8,9.57 -3.67,19.39 -5.64,29.06c-2.1,10.31 -3.85,20.67 -4.75,31.08c-1.36,15.87 -1.92,31.8 -2.61,47.7c-0.53,12.2 -0.84,24.42 -1.05,36.63c-0.21,11.87 -0.25,23.74 -0.19,35.61c0.03,5.4 0.34,10.8 0.75,16.18c0.67,8.8 1.59,17.58 2.29,26.38c0.58,7.21 1.67,14.35 2.91,21.49c1.24,7.19 3.04,14.3 4.41,21.45c1.52,7.96 3.33,15.88 4.93,23.82c2.04,10.17 2.91,20.41 3.99,30.65c0.68,6.42 1.07,12.85 1.49,19.28c0.79,12.04 0.58,24.09 0.23,36.12c-0.45,15.38 -1.58,30.75 -2.3,46.13c-0.53,11.58 -0.72,23.18 -1.38,34.76c-0.19,3.35 -0.35,6.71 -0.59,10.06c-0.77,10.76 -1.65,21.51 -2.41,32.27c-0.51,7.23 -0.76,14.47 -1.34,21.69c-1.09,13.5 -2.24,26.99 -2.48,40.53c-0.11,6.09 -0.77,12.17 -1.33,18.24c-0.99,10.85 4.01,17.33 14.14,21.49c5.87,2.41 12.09,2.82 18.42,2.88c6.25,0.06 12.36,-0.44 18.07,-2.9c6.31,-2.72 11,-6.67 12.52,-12.66c1.41,-5.57 0.22,-11.25 -0.12,-16.85c-0.48,-7.92 -1.53,-15.82 -2.28,-23.73c-0.69,-7.29 -1.23,-14.6 -1.95,-21.89c-0.97,-9.84 -2.53,-19.66 -2.94,-29.52c-0.6,-14.32 -1.97,-28.58 -3.2,-42.86c-0.95,-11.01 -1.81,-22.03 -2.51,-33.06c-0.95,-15.1 -2.23,-30.2 -2.42,-45.31c-0.38,-29.22 -0.53,-58.46 1.22,-87.66c0.19,-3.18 0.29,-6.37 0.64,-9.53c1.31,-11.78 2.46,-23.57 2.96,-35.4c0.53,-12.46 1.29,-24.92 1.78,-37.38c0.61,-15.3 1.53,-30.6 1.5,-45.93c-0.01,-5.03 0.41,-10.08 0.63,-15.12c0.68,-15.65 1.96,-31.29 2.24,-46.95c0.41,-22.67 0.59,-45.33 1.24,-68c0.37,-12.83 0.07,-25.67 0.07,-38.5c0.27,0 0.54,0 0.81,0zM64.49,109.79c0,14.79 -0.06,29.58 0.05,44.37c0.02,2.67 -1.18,3.66 -3.78,3.8c-5.61,0.3 -7,-0.71 -7.1,-6.01c-0.19,-9.7 -0.73,-19.38 -1.11,-29.07c-0.37,-9.25 -0.92,-18.49 -1.11,-27.73c-0.29,-13.89 -1.52,-27.74 -1.27,-41.64c0.13,-7.31 -0.81,-14.59 -0.59,-21.9c0.07,-2.29 -1.49,-3.58 -4,-3.52c-2.32,0.05 -3.28,1.36 -3.42,3.44c-0.53,8.15 -1.24,16.29 -1.64,24.44c-0.44,8.88 -1.16,17.73 -1.69,26.6c-0.71,11.8 -1.66,23.59 -2.28,35.39c-0.78,14.74 -1.04,29.49 -2.34,44.21c-0.65,7.43 -0.64,14.92 -1.3,22.35c-0.29,3.29 -0.24,6.58 -0.61,9.85c-0.67,5.93 -0.99,11.82 0.7,17.67c2.04,7.03 3.69,14.16 8.09,20.4c2.8,3.98 5.58,7.99 8.3,12.01c2.84,4.19 6.02,8.2 9.39,11.85c7.77,8.4 11.93,17.91 12.53,28.8c0.42,7.73 0.06,15.48 -0.26,23.23c-0.49,11.91 -0.61,23.83 -1.24,35.74c-0.71,13.4 -1.19,26.81 -1.8,40.22c-0.37,8.08 -0.78,16.15 -1.1,24.23c-0.54,13.33 -1.07,26.67 -1.79,39.99c-0.48,8.88 -0.62,17.78 -0.93,26.67c-0.43,12.27 -0.56,24.54 -1.25,36.81c-0.76,13.5 -1.2,27.01 -1.82,40.51c-0.57,12.35 -1.22,24.7 -1.63,37.06c-0.52,16.19 -1.75,32.35 -1.9,48.55c-0.05,5.78 -0.3,11.58 -0.84,17.34c-1.04,11.05 0.51,21.45 6.73,31.19c4.82,7.55 13.4,11.45 22.6,9.42c2.42,-0.54 4.5,-1.51 6.5,-3.04c3.44,-2.65 6.01,-5.67 7.98,-9.45c3.36,-6.45 5.83,-13.04 5.69,-20.27c-0.11,-5.6 -0.46,-11.21 -0.57,-16.81c-0.23,-12.11 -0.7,-24.21 -1.19,-36.31c-0.68,-17.07 -1.56,-34.14 -2.16,-51.22c-0.5,-14.23 -0.98,-28.45 -1.64,-42.67c-0.61,-13.07 -0.88,-26.15 -1.24,-39.23c-0.12,-4.45 0.01,-8.91 -0.15,-13.36c-0.67,-18.14 -1.43,-36.27 -2.1,-54.42c-0.29,-7.91 -0.21,-15.85 -0.71,-23.75c-0.37,-5.95 -0.37,-11.91 -0.59,-17.85c-0.51,-13.69 -1.09,-27.38 -1.61,-41.06c-0.25,-6.4 -0.17,-12.83 -0.74,-19.21c-0.46,-5.17 0.08,-10.35 -0.58,-15.47c-1.32,-10.25 0.82,-19.81 5.81,-28.93c2.72,-4.96 6.74,-9.11 9.87,-13.82c4.03,-6.07 8.35,-11.97 12.44,-18c5.6,-8.23 8.35,-17.22 9.1,-26.66c0.47,-5.96 -0.45,-12.06 -1.11,-18.06c-1.16,-10.52 -1.6,-21.08 -2.18,-31.63c-0.28,-5.22 -0.77,-10.44 -1.22,-15.66c-0.71,-8.3 -1.47,-16.59 -2.19,-24.89c-0.45,-5.22 -0.83,-10.44 -1.3,-15.66c-0.69,-7.68 -1.87,-15.35 -2.04,-23.05c-0.27,-12.36 -1.72,-24.64 -2.55,-36.95c-0.17,-2.54 -0.13,-5.14 -0.68,-7.68c-0.48,-2.21 -2.08,-2.98 -4.13,-2.77c-1.92,0.19 -3.05,1.19 -3.1,3.37c-0.47,22.16 -1.21,44.33 -1.57,66.49c-0.31,18.96 -0.7,37.92 -1.19,56.88c-0.07,2.69 -1.66,3.07 -3.88,3.01c-2.12,-0.06 -4.16,0 -4.22,-2.96c-0.26,-12.19 -0.64,-24.38 -1.01,-36.57c-0.44,-14.32 -0.76,-28.65 -1.16,-42.98c-0.41,-14.59 -0.55,-29.19 -1.17,-43.78c-0.1,-2.46 -1.49,-3.44 -3.61,-3.54c-2.13,-0.1 -3.89,0.79 -4.03,3.18c-0.14,2.4 -0.39,4.8 -0.41,7.2c-0.12,13.71 -0.65,27.41 -1.07,41.11c-0.56,18.6 -0.84,37.21 -1.25,55.81c-0.15,6.59 -0.41,13.18 -0.48,19.77c-0.03,2.63 -1.77,2.7 -3.81,2.79c-2.11,0.09 -3.11,-0.58 -3.19,-2.72c-0.5,-13.34 -1.24,-26.67 -1.64,-40.01c-0.44,-14.85 -1.01,-29.69 -1.71,-44.54c-0.59,-12.62 -0.82,-25.26 -1.21,-37.89c-0.1,-3.1 -1.71,-4.84 -4.43,-4.79c-3.11,0.07 -4.15,1.26 -4.15,4.78c0,20.14 0,40.27 0,60.41zM402.37,278.16c2.2,-3.1 4.48,-6.15 6.77,-9.2c21.75,-21.52 36.47,-62.8 36.47,-110.21c0,-69.61 -31.72,-126.04 -70.85,-126.04c-39.12,0 -70.84,56.43 -70.84,126.04c0,44.59 13.03,83.75 32.67,106.15c2.19,2.94 4.38,5.87 6.52,8.82c2.84,3.92 6.02,7.67 9.39,11.08c7.77,7.86 11.93,16.75 12.53,26.93c0.42,7.23 0.06,14.48 -0.26,21.72c-0.49,11.14 -0.61,22.29 -1.24,33.42c-0.71,12.53 -1.19,25.08 -1.8,37.61c-0.37,7.55 -0.78,15.11 -1.1,22.66c-0.54,12.47 -1.07,24.94 -1.79,37.4c-0.48,8.31 -0.62,16.63 -0.93,24.94c-0.43,11.48 -0.56,22.95 -1.25,34.43c-0.76,12.62 -1.2,25.26 -1.82,37.89c-0.57,11.55 -1.23,23.1 -1.62,34.66c-0.52,15.14 -1.75,30.25 -1.9,45.4c-0.05,5.41 -0.3,10.83 -0.84,16.22c-1.04,10.33 0.51,20.06 6.73,29.17c4.81,7.06 13.39,10.71 22.6,8.81c2.42,-0.5 4.5,-1.41 6.5,-2.84c3.44,-2.48 6.01,-5.31 7.98,-8.84c3.36,-6.03 5.83,-12.19 5.69,-18.96c-0.11,-5.24 -0.46,-10.48 -0.57,-15.73c-0.23,-11.32 -0.7,-22.64 -1.19,-33.95c-0.68,-15.97 -1.56,-31.93 -2.16,-47.9c-0.5,-13.3 -0.98,-26.6 -1.64,-39.9c-0.61,-12.22 -0.88,-24.46 -1.24,-36.69c-0.13,-4.16 0.01,-8.34 -0.15,-12.5c-0.67,-16.96 -1.43,-33.92 -2.1,-50.89c-0.29,-7.4 -0.21,-14.82 -0.71,-22.21c-0.37,-5.57 -0.37,-11.14 -0.59,-16.7c-0.51,-12.8 -1.09,-25.6 -1.62,-38.4c-0.25,-5.99 -0.17,-12 -0.74,-17.96c-0.46,-4.83 0.08,-9.68 -0.58,-14.47c-1.32,-9.59 0.82,-18.53 5.81,-27.06c2.72,-4.64 6.74,-8.52 9.86,-12.92zM530.59,412.22c1.67,-2.11 3.4,-4.18 5.13,-6.26c16.47,-14.62 27.62,-42.68 27.62,-74.9c0,-47.31 -24.03,-85.66 -53.66,-85.66c-29.64,0 -53.66,38.35 -53.66,85.66c0,30.31 9.86,56.91 24.74,72.14c1.66,1.99 3.32,3.99 4.94,6c2.15,2.66 4.56,5.21 7.11,7.53c5.89,5.34 9.04,11.39 9.49,18.3c0.32,4.91 0.04,9.84 -0.2,14.76c-0.37,7.57 -0.46,15.15 -0.94,22.72c-0.54,8.52 -0.9,17.04 -1.36,25.56c-0.28,5.13 -0.59,10.27 -0.83,15.4c-0.41,8.48 -0.81,16.95 -1.35,25.42c-0.36,5.65 -0.47,11.3 -0.71,16.95c-0.33,7.8 -0.42,15.6 -0.95,23.4c-0.58,8.58 -0.91,17.16 -1.38,25.75c-0.43,7.85 -0.93,15.7 -1.23,23.55c-0.4,10.29 -1.32,20.56 -1.44,30.86c-0.04,3.67 -0.22,7.36 -0.63,11.02c-0.79,7.02 0.39,13.63 5.1,19.83c3.65,4.8 10.15,7.28 17.12,5.99c1.83,-0.34 3.41,-0.96 4.92,-1.93c2.6,-1.68 4.56,-3.6 6.04,-6c2.54,-4.1 4.41,-8.29 4.31,-12.88c-0.08,-3.56 -0.35,-7.12 -0.43,-10.69c-0.17,-7.69 -0.53,-15.39 -0.9,-23.07c-0.51,-10.85 -1.18,-21.7 -1.64,-32.55c-0.38,-9.04 -0.74,-18.08 -1.24,-27.12c-0.46,-8.31 -0.66,-16.62 -0.94,-24.94c-0.1,-2.83 0.01,-5.66 -0.11,-8.49c-0.5,-11.53 -1.09,-23.06 -1.59,-34.59c-0.22,-5.03 -0.16,-10.08 -0.54,-15.1c-0.28,-3.79 -0.28,-7.57 -0.45,-11.35c-0.39,-8.7 -0.82,-17.4 -1.23,-26.1c-0.18,-4.07 -0.13,-8.16 -0.56,-12.21c-0.35,-3.28 0.06,-6.58 -0.44,-9.84c-1,-6.52 0.62,-12.59 4.4,-18.39c2.06,-3.15 5.1,-5.79 7.47,-8.78z" />
	</g>
</svg>