<?xml version="1.0" encoding="UTF-8" standalone="no"?>
<svg
   xmlns:dc="http://purl.org/dc/elements/1.1/"
   xmlns:cc="http://creativecommons.org/ns#"
   xmlns:rdf="http://www.w3.org/1999/02/22-rdf-syntax-ns#"
   xmlns:svg="http://www.w3.org/2000/svg"
   xmlns="http://www.w3.org/2000/svg"
   xmlns:sodipodi="http://sodipodi.sourceforge.net/DTD/sodipodi-0.dtd"
   xmlns:inkscape="http://www.inkscape.org/namespaces/inkscape"
   viewBox="0 0 295 616"
   width="295"
   height="616"
   version="1.1"
   id="svg3995"
   sodipodi:docname="cutlery-786745-pdf.svg"
   inkscape:version="0.92.4 (33fec40, 2019-01-16)">
  <metadata
     id="metadata3999">
    <rdf:RDF>
      <cc:Work
         rdf:about="">
        <dc:format>image/svg+xml</dc:format>
        <dc:type
           rdf:resource="http://purl.org/dc/dcmitype/StillImage" />
      </cc:Work>
    </rdf:RDF>
  </metadata>
  <sodipodi:namedview
     pagecolor="#ffffff"
     bordercolor="#666666"
     borderopacity="1"
     objecttolerance="10"
     gridtolerance="10"
     guidetolerance="10"
     inkscape:pageopacity="0"
     inkscape:pageshadow="2"
     inkscape:window-width="1373"
     inkscape:window-height="755"
     id="namedview3997"
     showgrid="false"
     inkscape:zoom="0.54180909"
     inkscape:cx="317.07434"
     inkscape:cy="226.9081"
     inkscape:window-x="67"
     inkscape:window-y="27"
     inkscape:window-maximized="1"
     inkscape:current-layer="Page 1" />
  <defs
     id="defs3989">
    <clipPath
       clipPathUnits="userSpaceOnUse"
       id="cp1">
      <path
         d="M-53 62L631 62L631 843L-53 843Z"
         id="path3986" />
    </clipPath>
  </defs>
  <style
     id="style3991">
		tspan { white-space:pre }
		.shp0 { fill: #2c2e35 } 
	</style>
  <g
     id="Page 1"
     clip-path="url(#cp1)">
    <path
       id="Path 1"
       class="shp0"
       d="m 255.45,182.8 c -0.37,-6.54 0,-13.08 -0.56,-19.64 -0.67,-7.75 -2.01,-15.34 -5.21,-22.57 -1.8,-4.08 -5.41,-7.03 -10.75,-7.86 -7.48,-1.16 -12.56,2.56 -16.58,6.93 -5.6,6.09 -9.19,13.16 -12.37,20.48 -4.6,10.57 -7.09,21.55 -10.28,32.41 -2.8,9.57 -3.67,19.39 -5.64,29.06 -2.1,10.31 -3.85,20.67 -4.75,31.08 -1.36,15.87 -1.92,31.8 -2.61,47.7 -0.53,12.2 -0.84,24.42 -1.05,36.63 -0.21,11.87 -0.25,23.74 -0.19,35.61 0.03,5.4 0.34,10.8 0.75,16.18 0.67,8.8 1.59,17.58 2.29,26.38 0.58,7.21 1.67,14.35 2.91,21.49 1.24,7.19 3.04,14.3 4.41,21.45 1.52,7.96 3.33,15.88 4.93,23.82 2.04,10.17 2.91,20.41 3.99,30.65 0.68,6.42 1.07,12.85 1.49,19.28 0.79,12.04 0.58,24.09 0.23,36.12 -0.45,15.38 -1.58,30.75 -2.3,46.13 -0.53,11.58 -0.72,23.18 -1.38,34.76 -0.19,3.35 -0.35,6.71 -0.59,10.06 -0.77,10.76 -1.65,21.51 -2.41,32.27 -0.51,7.23 -0.76,14.47 -1.34,21.69 -1.09,13.5 -2.24,26.99 -2.48,40.53 -0.11,6.09 -0.77,12.17 -1.33,18.24 -0.99,10.85 4.01,17.33 14.14,21.49 5.87,2.41 12.09,2.82 18.42,2.88 6.25,0.06 12.36,-0.44 18.07,-2.9 6.31,-2.72 11,-6.67 12.52,-12.66 1.41,-5.57 0.22,-11.25 -0.12,-16.85 -0.48,-7.92 -1.53,-15.82 -2.28,-23.73 -0.69,-7.29 -1.23,-14.6 -1.95,-21.89 -0.97,-9.84 -2.53,-19.66 -2.94,-29.52 -0.6,-14.32 -1.97,-28.58 -3.2,-42.86 -0.95,-11.01 -1.81,-22.03 -2.51,-33.06 -0.95,-15.1 -2.23,-30.2 -2.42,-45.31 -0.38,-29.22 -0.53,-58.46 1.22,-87.66 0.19,-3.18 0.29,-6.37 0.64,-9.53 1.31,-11.78 2.46,-23.57 2.96,-35.4 0.53,-12.46 1.29,-24.92 1.78,-37.38 0.61,-15.3 1.53,-30.6 1.5,-45.93 -0.01,-5.03 0.41,-10.08 0.63,-15.12 0.68,-15.65 1.96,-31.29 2.24,-46.95 0.41,-22.67 0.59,-45.33 1.24,-68 0.37,-12.83 0.07,-25.67 0.07,-38.5 z M 64.49,209.79 c 0,14.79 -0.06,29.58 0.05,44.37 0.02,2.67 -1.18,3.66 -3.78,3.8 -5.61,0.3 -7,-0.71 -7.1,-6.01 -0.19,-9.7 -0.73,-19.38 -1.11,-29.07 -0.37,-9.25 -0.92,-18.49 -1.11,-27.73 -0.29,-13.89 -1.52,-27.74 -1.27,-41.64 0.13,-7.31 -0.81,-14.59 -0.59,-21.9 0.07,-2.29 -1.49,-3.58 -4,-3.52 -2.32,0.05 -3.28,1.36 -3.42,3.44 -0.53,8.15 -1.24,16.29 -1.64,24.44 -0.44,8.88 -1.16,17.73 -1.69,26.6 -0.71,11.8 -1.66,23.59 -2.28,35.39 -0.78,14.74 -1.04,29.49 -2.34,44.21 -0.65,7.43 -0.64,14.92 -1.3,22.35 -0.29,3.29 -0.24,6.58 -0.61,9.85 -0.67,5.93 -0.99,11.82 0.7,17.67 2.04,7.03 3.69,14.16 8.09,20.4 2.8,3.98 5.58,7.99 8.3,12.01 2.84,4.19 6.02,8.2 9.39,11.85 7.77,8.4 11.93,17.91 12.53,28.8 0.42,7.73 0.06,15.48 -0.26,23.23 -0.49,11.91 -0.61,23.83 -1.24,35.74 -0.71,13.4 -1.19,26.81 -1.8,40.22 -0.37,8.08 -0.78,16.15 -1.1,24.23 -0.54,13.33 -1.07,26.67 -1.79,39.99 -0.48,8.88 -0.62,17.78 -0.93,26.67 -0.43,12.27 -0.56,24.54 -1.25,36.81 -0.76,13.5 -1.2,27.01 -1.82,40.51 -0.57,12.35 -1.22,24.7 -1.63,37.06 -0.52,16.19 -1.75,32.35 -1.9,48.55 -0.05,5.78 -0.3,11.58 -0.84,17.34 -1.04,11.05 0.51,21.45 6.73,31.19 4.82,7.55 13.4,11.45 22.6,9.42 2.42,-0.54 4.5,-1.51 6.5,-3.04 3.44,-2.65 6.01,-5.67 7.98,-9.45 3.36,-6.45 5.83,-13.04 5.69,-20.27 -0.11,-5.6 -0.46,-11.21 -0.57,-16.81 -0.23,-12.11 -0.7,-24.21 -1.19,-36.31 -0.68,-17.07 -1.56,-34.14 -2.16,-51.22 -0.5,-14.23 -0.98,-28.45 -1.64,-42.67 -0.61,-13.07 -0.88,-26.15 -1.24,-39.23 -0.12,-4.45 0.01,-8.91 -0.15,-13.36 -0.67,-18.14 -1.43,-36.27 -2.1,-54.42 -0.29,-7.91 -0.21,-15.85 -0.71,-23.75 -0.37,-5.95 -0.37,-11.91 -0.59,-17.85 -0.51,-13.69 -1.09,-27.38 -1.61,-41.06 -0.25,-6.4 -0.17,-12.83 -0.74,-19.21 -0.46,-5.17 0.08,-10.35 -0.58,-15.47 -1.32,-10.25 0.82,-19.81 5.81,-28.93 2.72,-4.96 6.74,-9.11 9.87,-13.82 4.03,-6.07 8.35,-11.97 12.44,-18 5.6,-8.23 8.35,-17.22 9.1,-26.66 0.47,-5.96 -0.45,-12.06 -1.11,-18.06 -1.16,-10.52 -1.6,-21.08 -2.18,-31.63 -0.28,-5.22 -0.77,-10.44 -1.22,-15.66 -0.71,-8.3 -1.47,-16.59 -2.19,-24.89 -0.45,-5.22 -0.83,-10.44 -1.3,-15.66 -0.69,-7.68 -1.87,-15.35 -2.04,-23.05 -0.27,-12.36 -1.72,-24.64 -2.55,-36.95 -0.17,-2.54 -0.13,-5.14 -0.68,-7.68 -0.48,-2.21 -2.08,-2.98 -4.13,-2.77 -1.92,0.19 -3.05,1.19 -3.1,3.37 -0.47,22.16 -1.21,44.33 -1.57,66.49 -0.31,18.96 -0.7,37.92 -1.19,56.88 -0.07,2.69 -1.66,3.07 -3.88,3.01 -2.12,-0.06 -4.16,0 -4.22,-2.96 -0.26,-12.19 -0.64,-24.38 -1.01,-36.57 -0.44,-14.32 -0.76,-28.65 -1.16,-42.98 -0.41,-14.59 -0.55,-29.19 -1.17,-43.78 -0.1,-2.46 -1.49,-3.44 -3.61,-3.54 -2.13,-0.1 -3.89,0.79 -4.03,3.18 -0.14,2.4 -0.39,4.8 -0.41,7.2 -0.12,13.71 -0.65,27.41 -1.07,41.11 -0.56,18.6 -0.84,37.21 -1.25,55.81 -0.15,6.59 -0.41,13.18 -0.48,19.77 -0.03,2.63 -1.77,2.7 -3.81,2.79 -2.11,0.09 -3.11,-0.58 -3.19,-2.72 C 77.14,241.9 76.4,228.57 76,215.23 75.56,200.38 74.99,185.54 74.29,170.69 73.7,158.07 73.47,145.43 73.08,132.8 c -0.1,-3.1 -1.71,-4.84 -4.43,-4.79 -3.11,0.07 -4.15,1.26 -4.15,4.78 v 60.41 z"
       style="opacity:1;fill:#f55628;fill-opacity:1"
       inkscape:connector-curvature="0"
       sodipodi:nodetypes="cccccccccccccccccccccccccccccccccccccccccccccccccccccccccccccccccccccccccsccccccccccccccccccccccccccccccccccccccccccccccccccccccccscc" />
  </g>
</svg>
